#!OML:ASF \\Waltz\H\Terrain\Patient Classification 1\Animal2\Wednesday\Animal2.ASF
:FULLY-SPECIFIED
:DEGREES
565
root 1.33622 17.7859 -0.149935 -171.597 48.8975 183.628
lowerback 2.42588 2.49903 5.2523
upperback -7.64512 3.96041 -1.31342
thorax -9.0227 1.63464 -4.74502
lowerneck 12.6915 10.6572 17.2852
upperneck -7.64091 17.6148 -33.5562
head 0.530814 10.6993 -13.987
rclavicle -8.52786e-014 -2.26615e-014
rhumerus 40.5301 28.5152 -33.2877
rradius 54.6388
rwrist -27.3534
rhand -9.24278 20.6918
rfingers 7.12502
rthumb 16.7127 -8.60878
lclavicle -8.52786e-014 -2.26615e-014
lhumerus 15.6346 12.4544 4.31278
lradius 54.6745
lwrist 12.3295
lhand -49.3135 14.7555
lfingers 7.12502
lthumb -21.93 43.5326
rfemur -13.9004 -19.5152 25.0956
rtibia 33.2425
rfoot -28.129 -17.5027
rtoes 33.3213
lfemur -18.6876 13.045 -20.7078
ltibia 36.9209
lfoot -23.9155 12.9167
ltoes -4.82476
566
root 1.37544 17.7717 -0.148311 -171.89 47.5538 183.297
lowerback 2.45918 2.42564 5.08698
upperback -7.67948 3.85491 -1.37075
thorax -9.09755 1.59155 -4.70914
lowerneck 13.2407 10.5342 17.2805
upperneck -8.33208 17.3899 -33.7738
head 0.207902 10.6825 -14.1929
rclavicle 9.35779e-014 1.82882e-014
rhumerus 40.3357 28.4152 -33.4181
rradius 54.6816
rwrist -27.3998
rhand -9.082 20.558
rfingers 7.12502
rthumb 16.8675 -8.72942
lclavicle 9.35779e-014 1.82882e-014
lhumerus 16.2979 13.6636 5.48399
lradius 54.2886
lwrist 10.989
lhand -48.8206 13.0721
lfingers 7.12502
lthumb -21.4567 41.9038
rfemur -13.731 -19.6942 24.9124
rtibia 33.5158
rfoot -28.9875 -16.3924
rtoes 37.4478
lfemur -18.8623 12.9261 -20.9862
ltibia 36.9722
lfoot -22.9846 13.2853
ltoes -6.26853
567
root 1.41276 17.7605 -0.151305 -172.207 46.2472 182.906
lowerback 2.29769 2.37025 5.00635
upperback -7.56311 3.74756 -1.51947
thorax -8.87934 1.54829 -4.79708
lowerneck 13.4853 10.4746 16.9723
upperneck -8.93672 17.1455 -33.7218
head -0.104372 10.6142 -14.2053
rclavicle -2.97183e-014 -1.86858e-014
rhumerus 40.2938 28.1577 -33.2868
rradius 54.8698
rwrist -27.7925
rhand -8.7841 20.3177
rfingers 7.12502
rthumb 17.1543 -8.94509
lclavicle -2.97183e-014 -1.86858e-014
lhumerus 16.4266 13.4368 5.04752
lradius 54.0251
lwrist 11.538
lhand -48.8331 13.5313
lfingers 7.12502
lthumb -21.4687 42.3616
rfemur -13.6123 -19.9774 24.6805
rtibia 33.8722
rfoot -28.7148 -16.8207
rtoes 36.7551
lfemur -18.9705 12.4825 -21.2689
ltibia 36.9004
lfoot -25.2226 11.7007
ltoes 5.34034
568
root 1.45158 17.7576 -0.157637 -172.311 45.0277 182.91
lowerback 1.85158 2.43054 5.36518
upperback -7.13601 3.77487 -1.73319
thorax -8.11098 1.55821 -5.17638
lowerneck 13.0553 10.3932 16.7754
upperneck -9.24494 16.8532 -33.6282
head -0.219861 10.4523 -14.1374
rclavicle -3.86636e-014 -9.14409e-015
rhumerus 40.311 27.537 -32.8444
rradius 55.1371
rwrist -28.1706
rhand -9.11989 20.3643
rfingers 7.12502
rthumb 16.831 -8.92622
lclavicle -3.86636e-014 -9.14409e-015
lhumerus 17.1121 14.2348 5.32803
lradius 53.882
lwrist 11.4048
lhand -48.7419 13.8056
lfingers 7.12502
lthumb -21.3811 42.6459
rfemur -13.3622 -20.0928 24.6625
rtibia 34.3204
rfoot -28.3579 -17.907
rtoes 33.8562
lfemur -18.8962 12.1966 -21.2262
ltibia 36.7674
lfoot -24.2886 13.5947
ltoes -6.23261
569
root 1.49005 17.748 -0.165246 -172.462 43.802 182.872
lowerback 1.94727 2.32009 5.24372
upperback -7.20054 3.64225 -1.60161
thorax -8.26854 1.50111 -4.96829
lowerneck 13.3047 10.4026 16.5727
upperneck -9.37916 16.8619 -33.5498
head -0.329525 10.4897 -14.1055
rclavicle -2.67862e-014 7.15625e-015
rhumerus 40.4112 27.8021 -32.6053
rradius 55.0714
rwrist -28.2038
rhand -9.33635 20.5427
rfingers 7.12502
rthumb 16.6226 -8.76547
lclavicle -2.67862e-014 7.15625e-015
lhumerus 16.9609 14.3033 5.61983
lradius 53.8708
lwrist 11.2094
lhand -48.5718 13.1655
lfingers 7.12502
lthumb -21.2178 42.0243
rfemur -13.2263 -20.1427 24.5921
rtibia 35.0302
rfoot -28.8056 -18.0088
rtoes 33.8533
lfemur -18.6763 11.7972 -21.1639
ltibia 36.5009
lfoot -24.9671 12.1968
ltoes 1.55186
570
root 1.52155 17.7034 -0.168728 -172.529 42.5273 182.784
lowerback 1.80991 2.27315 5.3227
upperback -7.20003 3.57918 -1.6524
thorax -8.18884 1.46882 -5.05383
lowerneck 13.4143 10.4661 16.4834
upperneck -9.46861 16.9511 -33.4385
head -0.371263 10.5439 -14.0509
rclavicle 9.72057e-014 1.27222e-014
rhumerus 40.4657 27.6037 -32.9399
rradius 54.5425
rwrist -27.9859
rhand -9.25365 20.7938
rfingers 7.12502
rthumb 16.7023 -8.50766
lclavicle 9.72057e-014 1.27222e-014
lhumerus 17.1339 14.4473 5.82557
lradius 53.6666
lwrist 10.9994
lhand -48.413 12.6348
lfingers 7.12502
lthumb -21.0652 41.5106
rfemur -13.5984 -20.4958 24.6815
rtibia 35.8493
rfoot -27.4336 -20.1658
rtoes 27.7062
lfemur -18.6187 11.2503 -21.1165
ltibia 36.2996
lfoot -25.3986 11.5897
ltoes 3.9784
571
root 1.55353 17.6936 -0.17726 -172.568 41.3048 182.74
lowerback 1.70886 2.22418 5.41866
upperback -7.17675 3.51658 -1.64917
thorax -8.10809 1.43701 -5.09274
lowerneck 13.3158 10.4523 16.5295
upperneck -9.41234 17.0322 -33.7154
head -0.282255 10.6131 -14.1464
rclavicle -3.38431e-014 7.55382e-015
rhumerus 40.5565 27.5356 -32.7778
rradius 54.3285
rwrist -27.9452
rhand -9.42432 21.0659
rfingers 7.12502
rthumb 16.538 -8.24938
lclavicle -3.38431e-014 7.55382e-015
lhumerus 17.2827 14.6749 6.08282
lradius 53.3155
lwrist 10.7208
lhand -48.6294 12.7817
lfingers 7.12502
lthumb -21.2731 41.6342
rfemur -13.8543 -20.8061 24.7356
rtibia 36.7738
rfoot -27.2046 -20.8344
rtoes 24.5428
lfemur -18.5328 10.6186 -20.9486
ltibia 36.1903
lfoot -25.8627 10.9215
ltoes 5.2094
572
root 1.58292 17.6781 -0.188957 -172.755 40.0462 182.629
lowerback 1.80353 2.08565 5.39403
upperback -7.12693 3.33586 -1.56922
thorax -8.13717 1.35126 -4.98416
lowerneck 13.0042 10.5274 16.3912
upperneck -9.30327 17.1903 -33.8815
head -0.150112 10.6992 -14.1283
rclavicle 5.91384e-015 -1.86858e-014
rhumerus 40.7818 27.6577 -32.2392
rradius 54.3829
rwrist -27.9347
rhand -9.57724 21.36
rfingers 7.12502
rthumb 16.3907 -7.96741
lclavicle 5.91384e-015 -1.86858e-014
lhumerus 16.9011 14.5578 5.88764
lradius 53.3548
lwrist 11.1138
lhand -49.0575 13.0417
lfingers 7.12502
lthumb -21.6842 41.8473
rfemur -13.9481 -20.9422 24.6086
rtibia 37.7528
rfoot -28.1352 -20.2167
rtoes 26.4707
lfemur -18.3784 9.78203 -20.7683
ltibia 36.2456
lfoot -25.949 10.6168
ltoes 3.84697
573
root 1.60948 17.6429 -0.200039 -172.947 38.7964 182.507
lowerback 1.85647 1.97422 5.392
upperback -7.09784 3.19091 -1.53186
thorax -8.15652 1.28119 -4.93444
lowerneck 12.7585 10.6057 16.2451
upperneck -9.11864 17.3439 -33.8511
head -0.0339891 10.7631 -14.0349
rclavicle -2.65378e-014 -3.97569e-015
rhumerus 40.9556 27.7343 -31.9089
rradius 54.3396
rwrist -27.7351
rhand -9.65864 21.6536
rfingers 7.12502
rthumb 16.3124 -7.68026
lclavicle -2.65378e-014 -3.97569e-015
lhumerus 16.6873 14.6279 5.89468
lradius 53.5609
lwrist 11.1557
lhand -49.2269 12.8736
lfingers 7.12502
lthumb -21.8469 41.6604
rfemur -14.1593 -20.955 24.4606
rtibia 38.9696
rfoot -29.1376 -19.1023
rtoes 30.2961
lfemur -18.235 8.96453 -20.6116
ltibia 36.2864
lfoot -25.8367 9.62389
ltoes 5.17204
